<svg xmlns="http://www.w3.org/2000/svg" viewBox="0 0 438.05 437.97"><defs><style>.cls-1{opacity:0.6;}.cls-2,.cls-3{fill:#004fc5;}.cls-2{fill-rule:evenodd;}.cls-4{fill:#fff;}</style></defs><title>Wing-Chart-3rd-Section</title><g id="Layer_2" data-name="Layer 2"><g id="SVGs"><g class="cls-1"><path class="cls-2" d="M347.05,207.43a128.08,128.08,0,0,0-67.8-102.07l-1.06-.56,37-76.79,12.21,3.27,79.32,79.32,25.16,93.9-84.69,4.13Z"/><path class="cls-3" d="M315.83,29.49l10.89,2.92,78.85,78.84,24.67,92.08-81.94,4a129.86,129.86,0,0,0-68.46-103.06l36-74.77m-1.35-2.95-.9,1.86-36,74.77-1,2.17,2.13,1.13a127.35,127.35,0,0,1,67.14,101.07l.21,2.4,2.4-.12,81.94-4,3.1-.15-.81-3L408,110.6l-.17-.65-.48-.47L328.49,30.64l-.47-.48-.65-.17-10.89-2.92-2-.53Z"/><path class="cls-4" d="M346.06,207.52a127.09,127.09,0,0,0-67.28-101.27l-1.91-1,37.74-78.4,13.28,3.56,79.69,79.69,25.56,95.36-86.89,4.24ZM282.8,103.3A131.79,131.79,0,0,1,350.33,205l77-3.75-23.79-88.81-78-78-8.51-2.28Z"/><path class="cls-3" d="M315.29,28.31l11.95,3.2,79.22,79.22,25.07,93.54-84.14,4.1-.09-1a128.33,128.33,0,0,0-67.93-102.27l-.85-.45,36.77-76.38m33.91,178L429,202.39l-24.28-90.63L326.21,33.3l-9.83-2.63-35.23,73.16A130.29,130.29,0,0,1,349.2,206.28M313.94,25.36l-.9,1.86-36.77,76.39-1,2.16,2.13,1.13.85.45a125.84,125.84,0,0,1,66.61,100.28l.09,1,.21,2.39,2.4-.11,84.14-4.11,3.09-.15-.8-3-25.06-93.54-.18-.64-.47-.48L329,29.74l-.47-.47-.65-.18-11.95-3.2-2-.53Zm-29.51,77.42,33.3-69.16,7.18,1.92,77.52,77.52,23.31,87-74.3,3.63a133,133,0,0,0-67-100.89Z"/></g><g class="cls-1"><path class="cls-2" d="M110.68,406.61,31.36,327.29,2.33,219l29-108.35,79.32-79.32L216.06,3.05V90.44l-1.21,0a128.54,128.54,0,0,0,4.17,257c70.88,0,128.55-57.66,128.55-128.54,0-1.21,0-2.41-.05-3.61l0-1.22,85.82-4.18,2.42,9-29,108.34-79.32,79.32L219,435.64Z"/><path class="cls-3" d="M214.81,4.68V89.23A129.79,129.79,0,1,0,348.82,219c0-1.22,0-2.43-.05-3.64l83.59-4.07,2.06,7.71-28.85,107.7-78.85,78.84L219,434.35l-107.7-28.86L32.48,326.65,3.62,219l28.86-107.7,78.84-78.84L214.81,4.68m2.5-3.26-3.15.84L110.68,30l-.65.17-.47.48L30.71,109.48l-.47.47-.17.65L1.21,218.3,1,219l.17.64,28.86,107.7.17.65.47.48,78.85,78.84.47.47.65.17,107.7,28.86.64.18.65-.18,107.7-28.86.65-.17.47-.47,78.84-78.84.48-.48.17-.65,28.86-107.7L437,219l-.17-.65-2.07-7.71-.52-2-2,.1-83.59,4.07-2.45.12.07,2.45c0,1.28.05,2.45.05,3.57A127.3,127.3,0,1,1,214.89,91.72l2.42-.07V1.42Z"/><path class="cls-4" d="M110.16,407.51l-79.7-79.7L1.29,219,30.46,110.08l79.7-79.69L217.06,1.74V91.4l-2.18.07A127.54,127.54,0,1,0,346.57,219c0-1.2,0-2.39-.05-3.58l-.06-2.2,87.6-4.27,2.69,10L407.58,327.81l-79.69,79.7L219,436.68ZM219,432l106.54-28.55,78-78L432.09,219l-1.44-5.38-79.59,3.88c0,.5,0,1,0,1.5,0,72.81-59.24,132-132,132S87,291.76,87,219A132,132,0,0,1,212.56,87.06V7.61L112.49,34.42l-78,78L6,219,34.5,325.48l78,78Z"/><path class="cls-3" d="M215.81,3.37V90.19l-1,0A128.79,128.79,0,1,0,347.82,219c0-1.21,0-2.41-.05-3.61l0-1,85.37-4.16,2.35,8.75-29,108.21-79.22,79.23L219,435.38l-108.21-29L31.59,327.16,2.59,219l29-108.22,79.22-79.22,105-28.14M219,433.31l107.19-28.72,78.46-78.46L433.39,219l-1.79-6.68-81.81,4c0,.89,0,1.79,0,2.69,0,72.12-58.67,130.79-130.8,130.79a130.79,130.79,0,0,1-5.21-261.48V6l-102,27.32L33.38,111.76,4.66,219,33.38,326.13l78.46,78.46L219,433.31M218.31.11,215.16,1l-105,28.13-.65.18-.47.47L29.82,109l-.48.48-.17.64L.17,218.3,0,219l.17.64,29,108.22.17.65.48.47L109,408.15l.47.48.65.17,108.22,29,.64.17.65-.17,108.22-29,.65-.17.47-.48,79.22-79.22.47-.47.18-.65,29-108.22.18-.64-.18-.65-2.34-8.75-.52-2-2,.1-85.37,4.16-2.44.12.06,2.45,0,1c0,1.27.05,2.42.05,3.55A126.29,126.29,0,1,1,214.92,92.72l1,0,2.42-.07V.11ZM113.14,35.54l98.17-26.3V85.88A133.29,133.29,0,0,0,85.73,219c0,73.5,59.79,133.29,133.29,133.29S352.32,292.45,352.32,219v-.31l77.39-3.77L430.8,219,402.43,324.84l-77.52,77.51L219,430.72,113.14,402.35,35.62,324.84,7.25,219,35.62,113.06l77.52-77.52Z"/></g><g class="cls-1"><path class="cls-2" d="M272.15,101.86a127.54,127.54,0,0,0-49.38-11.4l-1.21,0V2.93l88.19,23.63-36.49,75.8Z"/><path class="cls-3" d="M222.81,4.56,308,27.38l-35.31,73.34a129.13,129.13,0,0,0-49.85-11.51V4.56m-2.5-3.26V91.64l2.43.07A126.19,126.19,0,0,1,271.63,103l2.23,1,1.06-2.21,35.3-73.34,1.31-2.71L308.62,25,223.46,2.15l-3.15-.85Z"/><path class="cls-4" d="M271.73,102.77a126.47,126.47,0,0,0-49-11.31l-2.19-.06V1.63l90.61,24.28-37.43,77.77ZM225.06,87a130.68,130.68,0,0,1,46.52,10.74l33.18-68.93L225.06,7.49Z"/><path class="cls-3" d="M221.81,3.26l87.58,23.47L273.14,102l-.89-.4a127.82,127.82,0,0,0-49.47-11.42l-1,0V3.26m50.37,96.15L306.54,28,223.81,5.86V88.24a129.56,129.56,0,0,1,48.37,11.17M219.31,0V92.61l2.43.07,1,0a125.1,125.1,0,0,1,48.5,11.2l.9.4,2.22,1,1.06-2.2,36.26-75.31L313,25.09,310,24.31,222.46.84,219.31,0Zm7,85.85V9.12L303,29.67,271,96.16a132.07,132.07,0,0,0-44.67-10.31Z"/></g></g></g></svg>